<?xml version="1.0" standalone="no"?>
<!DOCTYPE svg PUBLIC "-//W3C//DTD SVG 20010904//EN"
 "http://www.w3.org/TR/2001/REC-SVG-20010904/DTD/svg10.dtd">
<svg version="1.0" xmlns="http://www.w3.org/2000/svg"
 width="3071.000000pt" height="3071.000000pt" viewBox="0 0 3071.000000 3071.000000"
 preserveAspectRatio="xMidYMid meet">
<metadata>
Created by potrace 1.11, written by Peter Selinger 2001-2013
</metadata>
<g transform="translate(0.000000,3071.000000) scale(0.100000,-0.100000)"
fill="#000000" stroke="none">
<path d="M10517 22304 c-1 -1 -87 -4 -192 -8 -104 -3 -219 -8 -255 -10 -171
-12 -236 -17 -250 -21 -8 -2 -46 -6 -85 -10 -38 -3 -81 -8 -95 -10 -53 -8
-107 -15 -150 -20 -25 -4 -58 -9 -75 -11 -16 -3 -43 -8 -60 -10 -16 -3 -39 -7
-50 -8 -11 -2 -38 -7 -60 -11 -101 -16 -393 -79 -515 -111 -74 -19 -144 -37
-155 -39 -11 -3 -72 -21 -135 -40 -63 -20 -123 -38 -132 -40 -20 -4 -246 -80
-279 -94 -13 -5 -69 -26 -124 -46 -55 -20 -113 -43 -130 -50 -16 -7 -68 -29
-115 -48 -200 -82 -504 -228 -689 -331 -46 -25 -85 -46 -88 -46 -2 0 -16 -8
-31 -18 -15 -11 -94 -59 -175 -108 -208 -125 -199 -120 -342 -218 -204 -140
-499 -363 -630 -477 -146 -127 -219 -191 -270 -239 -103 -95 -376 -371 -466
-470 -83 -91 -107 -119 -209 -239 -25 -29 -52 -61 -60 -71 -8 -9 -26 -32 -40
-50 -14 -19 -43 -56 -66 -84 -54 -68 -182 -239 -226 -301 -244 -350 -440 -669
-603 -980 -37 -71 -71 -136 -76 -144 -14 -26 -159 -333 -159 -338 0 -2 -10
-25 -21 -51 -12 -26 -30 -66 -40 -89 -44 -97 -179 -443 -179 -458 0 -4 -6 -21
-14 -38 -33 -74 -227 -697 -251 -807 -2 -8 -15 -60 -29 -115 -13 -55 -27 -111
-30 -125 -2 -14 -12 -56 -21 -95 -9 -38 -19 -81 -22 -95 -2 -14 -13 -65 -24
-113 -10 -48 -22 -105 -25 -125 -3 -20 -7 -44 -9 -52 -2 -8 -7 -28 -10 -45 -2
-16 -7 -39 -9 -50 -2 -11 -7 -40 -11 -65 -4 -25 -9 -54 -11 -65 -16 -82 -57
-351 -69 -455 -3 -25 -7 -61 -10 -80 -2 -19 -7 -57 -10 -85 -2 -27 -7 -68 -9
-90 -16 -144 -32 -370 -41 -565 -12 -270 0 -809 20 -950 2 -14 6 -65 10 -114
3 -50 8 -92 10 -95 1 -3 6 -33 9 -66 3 -33 8 -69 10 -80 2 -11 7 -42 10 -70
67 -479 247 -1083 452 -1510 26 -55 48 -102 49 -105 0 -3 7 -16 14 -30 8 -14
34 -63 59 -110 25 -47 72 -130 105 -185 88 -146 162 -255 290 -430 211 -287
652 -712 946 -913 131 -90 273 -183 316 -206 28 -16 56 -33 63 -39 74 -60 555
-283 817 -379 277 -101 797 -235 1030 -264 17 -2 55 -9 85 -14 129 -23 366
-50 580 -66 418 -31 1100 -21 1435 20 17 2 59 7 95 10 36 4 76 9 90 11 14 2
49 7 79 10 30 4 63 9 75 11 12 2 46 7 76 10 30 3 58 7 61 10 3 2 24 6 47 8
104 14 503 100 672 147 19 5 43 12 53 14 60 14 228 66 397 122 160 54 449 165
573 222 34 15 82 36 107 47 225 96 924 488 938 525 2 5 8 9 12 9 8 0 109 68
219 147 179 129 420 327 617 508 105 95 353 349 454 464 36 41 70 79 75 85 78
85 310 381 400 511 53 75 163 239 180 267 161 269 216 364 296 523 223 438
386 863 529 1372 17 62 33 122 36 133 2 11 6 28 8 38 18 74 46 191 50 212 3
14 17 79 30 145 14 66 28 136 31 155 3 19 7 42 10 50 2 8 6 33 10 55 6 43 15
97 22 130 9 46 32 177 38 217 4 24 10 61 15 83 5 22 18 94 29 160 11 66 32
183 45 260 14 77 27 155 30 173 3 17 9 47 12 65 3 17 8 41 9 52 2 16 26 150
49 275 4 21 27 152 51 295 3 17 7 40 10 51 l5 22 -2940 0 -2940 0 -5 -22 c-4
-19 -31 -168 -39 -221 -6 -36 -37 -209 -42 -235 -3 -14 -7 -36 -9 -50 -2 -14
-15 -88 -29 -165 -13 -77 -27 -156 -30 -175 -3 -19 -8 -46 -11 -60 -5 -24 -11
-59 -19 -110 -2 -14 -14 -79 -26 -145 -12 -66 -23 -129 -25 -140 -3 -23 -44
-252 -50 -287 -3 -13 -14 -75 -25 -138 -11 -63 -22 -126 -25 -140 -20 -110
-85 -491 -85 -502 0 -13 191 -15 1338 -15 735 -1 1343 -2 1350 -2 7 -1 11 -5
8 -10 -3 -5 -8 -26 -12 -46 -25 -158 -138 -483 -240 -690 -200 -406 -499 -757
-864 -1011 -148 -104 -360 -223 -510 -287 -19 -8 -63 -26 -96 -41 -34 -14 -68
-26 -76 -26 -8 0 -18 -4 -23 -9 -15 -13 -277 -93 -385 -116 -92 -20 -166 -36
-192 -40 -18 -3 -44 -7 -58 -10 -34 -6 -76 -13 -130 -20 -25 -3 -61 -8 -80
-10 -19 -3 -62 -7 -95 -10 -33 -3 -96 -8 -140 -11 -165 -14 -667 -6 -735 11
-8 2 -42 6 -75 10 -301 31 -645 138 -914 285 -419 229 -757 614 -952 1086 -73
176 -137 381 -168 534 -6 30 -14 66 -16 80 -18 83 -24 121 -30 175 -4 33 -9
63 -11 66 -2 4 -6 39 -10 78 -3 40 -7 82 -10 94 -21 110 -21 822 1 947 2 14 6
59 10 100 3 41 7 84 9 95 2 11 7 49 10 85 4 36 8 75 10 85 2 11 7 45 11 75 4
30 9 62 10 70 2 8 6 38 9 65 11 79 64 366 92 500 17 76 17 76 34 150 6 28 13
58 15 68 2 10 23 86 45 170 219 806 529 1447 974 2012 39 50 73 92 76 95 4 3
42 45 86 95 79 90 111 123 240 245 63 60 108 100 176 156 120 100 334 247 498
341 97 56 311 163 325 163 4 0 31 11 62 25 163 75 561 187 748 210 11 2 54 8
95 14 252 36 641 43 878 16 23 -3 63 -7 90 -10 26 -3 70 -10 97 -15 28 -5 66
-12 85 -15 151 -24 392 -101 548 -176 392 -185 681 -478 847 -857 51 -117 107
-291 120 -372 3 -19 8 -42 10 -50 6 -20 12 -57 21 -126 4 -33 9 -62 10 -66 1
-5 2 -17 3 -28 1 -20 8 -20 1669 -20 l1669 0 2 58 c9 171 1 561 -13 667 -2 17
-7 61 -11 98 -3 37 -8 76 -10 85 -1 9 -6 38 -9 63 -6 43 -33 193 -55 299 -69
337 -238 768 -434 1110 -102 178 -296 459 -384 555 -10 11 -45 52 -78 90 -82
96 -304 315 -406 401 -356 301 -761 552 -1184 733 -148 63 -155 66 -215 89
-30 11 -84 31 -120 45 -180 68 -590 182 -805 222 -265 51 -487 82 -720 101
-44 3 -96 8 -115 10 -50 5 -609 21 -613 18z"/>
<path d="M18565 22099 c-7 -21 -11 -41 -21 -106 -5 -26 -9 -50 -9 -53 -1 -3
-5 -27 -10 -55 -4 -27 -9 -59 -11 -70 -9 -46 -35 -193 -40 -225 -3 -19 -7 -42
-9 -50 -2 -8 -7 -31 -10 -50 -14 -87 -57 -332 -70 -400 -8 -41 -16 -91 -19
-110 -3 -19 -10 -60 -16 -90 -6 -30 -13 -71 -16 -90 -3 -19 -9 -57 -15 -85
-16 -82 -17 -91 -23 -131 -4 -22 -11 -65 -17 -96 -5 -32 -12 -70 -15 -85 -2
-16 -9 -50 -14 -78 -5 -27 -12 -67 -16 -89 -3 -21 -8 -48 -10 -60 -2 -11 -11
-59 -19 -106 -8 -47 -21 -123 -30 -170 -8 -47 -18 -101 -21 -120 -2 -19 -9
-57 -15 -85 -5 -27 -11 -61 -14 -75 -3 -14 -8 -45 -11 -70 -3 -25 -8 -47 -9
-50 -2 -3 -6 -26 -10 -50 -3 -25 -20 -119 -36 -210 -17 -91 -32 -176 -34 -190
-5 -36 -16 -99 -21 -124 -2 -11 -7 -37 -10 -56 -4 -19 -8 -44 -11 -55 -2 -11
-6 -36 -9 -55 -3 -19 -7 -46 -10 -60 -3 -14 -12 -63 -20 -110 -8 -47 -17 -96
-20 -110 -2 -14 -7 -41 -10 -60 -3 -19 -12 -73 -21 -120 -8 -47 -17 -94 -19
-105 -17 -103 -35 -204 -39 -223 -6 -34 -47 -264 -50 -282 -2 -17 -15 -95 -21
-125 -2 -11 -11 -60 -20 -110 -8 -49 -18 -103 -21 -120 -3 -16 -7 -39 -9 -50
-19 -110 -174 -990 -188 -1070 -10 -55 -15 -79 -26 -145 -6 -36 -13 -76 -16
-90 -2 -14 -11 -63 -19 -110 -9 -47 -18 -97 -20 -110 -3 -14 -14 -77 -25 -140
-11 -63 -22 -126 -25 -140 -2 -14 -11 -68 -20 -120 -8 -52 -20 -117 -26 -145
-7 -40 -42 -231 -73 -415 -3 -14 -17 -92 -31 -175 -15 -82 -28 -159 -30 -170
-1 -11 -9 -58 -18 -105 -9 -47 -18 -101 -21 -120 -3 -19 -8 -48 -11 -65 -3
-16 -14 -77 -25 -135 -11 -58 -22 -121 -25 -140 -13 -80 -17 -101 -40 -235
-26 -144 -34 -193 -59 -330 -8 -44 -29 -161 -46 -260 -80 -457 -81 -461 -104
-590 -8 -44 -18 -96 -20 -115 -3 -19 -8 -46 -11 -60 -2 -14 -11 -64 -19 -112
-9 -48 -18 -97 -20 -110 -3 -13 -8 -41 -11 -63 -3 -22 -7 -47 -10 -55 -2 -8
-6 -33 -10 -55 -5 -36 -30 -177 -41 -230 -2 -11 -6 -35 -9 -54 -2 -19 -16 -95
-29 -170 -14 -75 -28 -153 -32 -175 -3 -21 -8 -48 -10 -60 -2 -11 -11 -59 -19
-106 -15 -92 -32 -190 -70 -400 -13 -74 -27 -151 -30 -170 -10 -60 -17 -104
-22 -125 -2 -11 -6 -29 -7 -40 -12 -71 -27 -154 -31 -175 -12 -61 -15 -77 -20
-115 -3 -22 -7 -47 -10 -55 -2 -8 -6 -33 -10 -55 -3 -22 -7 -47 -10 -55 -2 -8
-6 -33 -10 -54 -3 -21 -7 -48 -10 -60 -2 -12 -7 -37 -10 -56 -2 -19 -7 -46
-10 -60 -5 -29 -49 -274 -71 -400 -8 -47 -19 -107 -24 -135 -5 -27 -12 -70
-15 -95 -3 -25 -10 -61 -15 -80 -5 -19 -11 -53 -14 -75 -6 -43 -11 -72 -26
-150 -5 -27 -12 -67 -16 -89 -3 -21 -8 -48 -10 -60 -2 -11 -7 -37 -10 -56 -3
-19 -8 -43 -11 -52 -4 -17 79 -18 1646 -18 1314 0 1651 3 1652 13 0 6 2 19 4
27 2 8 24 134 49 280 55 312 55 309 60 335 2 11 7 40 11 65 4 25 9 54 11 65
10 55 44 244 49 275 3 19 10 58 15 85 5 28 12 64 15 80 3 17 7 40 9 51 2 12 7
39 11 60 3 22 8 53 11 69 5 31 31 173 38 212 3 11 8 43 12 70 5 26 9 50 9 53
1 3 5 25 9 50 5 25 10 54 12 65 5 27 71 401 113 645 11 63 22 124 24 135 3 11
8 40 12 65 4 25 9 54 11 65 3 11 7 36 10 55 2 19 9 55 14 80 5 25 14 74 19
110 11 63 15 88 26 140 3 14 7 43 10 65 3 22 10 63 16 90 17 89 19 99 24 140
3 22 8 47 10 55 5 17 11 54 20 115 4 22 8 47 10 55 2 8 7 30 10 48 10 62 16
98 45 262 36 206 39 219 45 250 6 28 26 144 30 175 3 23 80 461 96 545 11 60
16 89 24 135 3 17 7 39 9 50 2 11 16 93 32 182 l28 163 2710 2 2710 3 8 35 c4
19 23 127 42 240 46 267 45 262 50 286 2 12 7 37 10 55 3 19 22 124 41 234 20
110 38 211 40 225 3 27 15 93 22 125 2 11 6 34 9 50 11 70 56 326 69 395 8 41
17 91 20 110 3 19 12 71 20 115 8 44 17 96 20 115 4 19 15 82 25 140 46 258
60 338 66 375 3 22 12 70 19 108 l13 67 -27 1 c-14 0 -1233 1 -2709 1 l-2683
1 7 41 c3 23 8 52 10 66 3 14 11 61 19 105 8 44 17 96 20 115 3 19 10 58 15
85 16 80 18 91 26 142 3 26 8 57 11 68 2 11 17 94 33 185 16 91 40 228 54 305
14 77 28 156 31 175 3 19 19 109 35 200 16 91 32 181 35 200 3 19 17 98 31
175 14 77 27 154 29 170 3 17 9 55 15 85 6 30 19 105 30 165 10 61 28 160 39
220 11 61 23 128 26 150 5 34 13 75 21 108 1 4 2 14 3 22 1 13 345 15 3009 17
l3007 3 12 70 c6 39 14 86 18 105 3 20 8 47 10 60 3 14 19 104 36 200 39 228
38 220 44 255 3 17 12 66 21 110 8 44 17 96 20 115 3 19 25 148 50 285 24 138
46 264 49 280 3 17 7 41 10 55 3 14 18 102 35 195 16 94 32 181 34 195 3 14 7
41 10 60 3 19 8 46 11 60 3 14 10 52 15 85 5 33 12 70 14 81 2 12 7 37 10 55
3 19 10 61 16 94 6 33 15 85 20 115 6 30 12 66 15 80 3 14 8 46 12 71 l5 46
-4651 0 c-4429 0 -4651 -1 -4656 -18z"/>
</g>
</svg>
